<svg width="22" height="24" viewBox="0 0 22 24" fill="none" xmlns="http://www.w3.org/2000/svg">
<path fill-rule="evenodd" clip-rule="evenodd" d="M17.2917 10.5833V7.70833C17.2917 4.00342 14.2882 1 10.5833 1C6.87842 1 3.875 4.00342 3.875 7.70833V10.5833C3.875 13.7458 1 14.5125 1 16.3333C1 17.9625 4.7375 19.2083 10.5833 19.2083C16.4292 19.2083 20.1667 17.9625 20.1667 16.3333C20.1667 14.5125 17.2917 13.7458 17.2917 10.5833Z" stroke="#11142D" stroke-width="2" stroke-linecap="round" stroke-linejoin="round"/>
<path d="M10.5836 21.125C9.6147 21.125 8.70428 21.0924 7.84753 21.0292C8.2224 22.225 9.3304 23.0388 10.5836 23.0388C11.8368 23.0388 12.9448 22.225 13.3196 21.0292C12.4629 21.0924 11.5525 21.125 10.5836 21.125Z" fill="#1B1D21"/>
</svg>
