<svg width="21" height="13" viewBox="0 0 21 13" fill="none" xmlns="http://www.w3.org/2000/svg">
<path d="M20.1729 6.46209C20.3634 6.20491 20.3551 5.85384 20.1522 5.60483C17.0847 1.88597 13.7729 0 10.3038 0C4.42129 0 0.335378 5.4048 0.165649 5.6334C-0.0247785 5.89058 -0.0164991 6.24165 0.186348 6.49066C3.24974 10.2136 6.56153 12.0996 10.0306 12.0996C15.9132 12.0996 19.9991 6.69477 20.1729 6.46209ZM10.0306 10.6994C7.14109 10.6994 4.32607 9.13183 1.65181 6.0457C2.69916 4.82513 6.0275 1.40019 10.3038 1.40019C13.1934 1.40019 16.0084 2.96774 18.6826 6.05387C17.6353 7.27444 14.307 10.6994 10.0306 10.6994Z" fill="#373B53"/>
<path d="M10.1671 2.49438C8.18003 2.49438 6.5614 4.09052 6.5614 6.04996C6.5614 8.00941 8.18003 9.60554 10.1671 9.60554C12.1542 9.60554 13.7728 8.00941 13.7728 6.04996C13.7728 4.09052 12.1542 2.49438 10.1671 2.49438ZM10.1671 8.20535C8.96244 8.20535 7.98133 7.23787 7.98133 6.04996C7.98133 4.86205 8.96244 3.89457 10.1671 3.89457C11.3718 3.89457 12.3529 4.86205 12.3529 6.04996C12.3529 7.23787 11.3718 8.20535 10.1671 8.20535Z" fill="#373B53"/>
</svg>
