<svg width="19" height="15" viewBox="0 0 19 15" fill="none" xmlns="http://www.w3.org/2000/svg">
<path d="M1.52115 6C0.679446 6 0 6.67 0 7.5C0 8.33 0.679446 9 1.52115 9C2.36285 9 3.04229 8.33 3.04229 7.5C3.04229 6.67 2.36285 6 1.52115 6ZM1.52115 0C0.679446 0 0 0.67 0 1.5C0 2.33 0.679446 3 1.52115 3C2.36285 3 3.04229 2.33 3.04229 1.5C3.04229 0.67 2.36285 0 1.52115 0ZM1.52115 12C0.679446 12 0 12.68 0 13.5C0 14.32 0.689587 15 1.52115 15C2.35271 15 3.04229 14.32 3.04229 13.5C3.04229 12.68 2.36285 12 1.52115 12ZM4.56344 14.5H18.7608V12.5H4.56344V14.5ZM4.56344 8.5H18.7608V6.5H4.56344V8.5ZM4.56344 0.5V2.5H18.7608V0.5H4.56344Z" fill="#6C5DD3"/>
</svg>
