<svg width="21" height="20" viewBox="0 0 21 20" fill="none" xmlns="http://www.w3.org/2000/svg">
<path d="M20.3031 9.99465L11.0599 0V5.98695H9.98616C7.32633 5.98695 4.82559 7.00836 2.94476 8.86308C1.06392 10.7178 0.0280762 13.1837 0.0280762 15.8067V20L1.80199 18.0834C4.17494 15.5197 7.54329 14.0367 11.0599 14.003V19.9895L20.3031 9.99465ZM1.21663 16.987V15.8067C1.21663 13.4969 2.1288 11.3251 3.78515 9.69176C5.4415 8.05844 7.64371 7.15894 9.98616 7.15894H12.2483V3.02449L18.6947 9.99469L12.2483 16.9651V12.8305H11.182C7.43047 12.8305 3.8229 14.3403 1.21663 16.987V16.987Z" fill="#373B53"/>
</svg>
