<svg width="22" height="20" viewBox="0 0 22 20" fill="none" xmlns="http://www.w3.org/2000/svg">
<path d="M17.5 12C16.1921 12 15.0628 12.7298 14.4621 13.7956L7.90697 11.2745C7.96387 11.0245 7.99997 10.7669 7.99997 10.5C7.99997 10.1537 7.93387 9.8257 7.83975 9.50952L14.57 6.40289C15.195 7.36186 16.2725 8.00001 17.4999 8.00001C19.4296 8.00001 20.9999 6.4297 20.9999 4.50001C20.9999 2.57031 19.4296 1 17.4999 1C15.5702 1 14 2.57031 14 4.50001C14 4.84632 14.066 5.1743 14.1602 5.49047L7.42992 8.5971C6.80494 7.63814 5.72743 6.99998 4.50001 6.99998C2.57031 6.99998 1 8.57029 1 10.5C1 12.4297 2.57031 14 4.50001 14C5.80791 14 6.93722 13.2702 7.53783 12.2044L14.093 14.7255C14.0361 14.9755 14 15.233 14 15.5C14 17.4297 15.5703 19 17.5 19C19.4297 19 21 17.4297 21 15.5C21 13.5703 19.4297 12 17.5 12ZM17.5 2.00003C18.8784 2.00003 19.9999 3.1216 19.9999 4.50001C19.9999 5.87841 18.8784 6.99998 17.5 6.99998C16.1216 6.99998 15 5.87841 15 4.50001C15 3.1216 16.1216 2.00003 17.5 2.00003ZM4.50001 13C3.1216 13 2.00003 11.8784 2.00003 10.5C2.00003 9.12159 3.1216 8.00001 4.50001 8.00001C5.87841 8.00001 6.99998 9.12159 6.99998 10.5C6.99998 11.8784 5.87841 13 4.50001 13ZM17.5 18C16.1216 18 15 16.8784 15 15.5C15 14.1216 16.1216 13 17.5 13C18.8784 13 19.9999 14.1216 19.9999 15.5C19.9999 16.8784 18.8784 18 17.5 18Z" fill="#9496FF" stroke="#9496FF" stroke-width="0.5"/>
</svg>
