<svg width="18" height="18" viewBox="0 0 18 18" fill="none" xmlns="http://www.w3.org/2000/svg">
<path fill-rule="evenodd" clip-rule="evenodd" d="M2.25 4.125C1.93934 4.125 1.6875 4.37684 1.6875 4.6875V13.6875C1.6875 13.9982 1.93934 14.25 2.25 14.25H15.75C16.0607 14.25 16.3125 13.9982 16.3125 13.6875V4.6875C16.3125 4.37684 16.0607 4.125 15.75 4.125H2.25ZM0.5625 4.6875C0.5625 3.75552 1.31802 3 2.25 3H15.75C16.682 3 17.4375 3.75552 17.4375 4.6875V13.6875C17.4375 14.6195 16.682 15.375 15.75 15.375H2.25C1.31802 15.375 0.5625 14.6195 0.5625 13.6875V4.6875Z" fill="#BDC3F9"/>
<path fill-rule="evenodd" clip-rule="evenodd" d="M17.0666 3.63194C17.256 3.87819 17.2099 4.23135 16.9637 4.42075L10.8557 9.11872C10.8557 9.11873 10.8557 9.11874 10.8557 9.11875C10.3236 9.52802 9.67123 9.74993 8.99999 9.74993C8.32873 9.74993 7.67631 9.52801 7.14426 9.11872L1.0363 4.42075C0.790053 4.23135 0.743971 3.87819 0.933372 3.63194C1.12277 3.38569 1.47593 3.33961 1.72218 3.52901L7.83018 8.22701L7.83021 8.22704C8.16559 8.48504 8.57686 8.62493 8.99999 8.62493C9.42312 8.62493 9.83439 8.48504 10.1698 8.22704L10.1698 8.22701L16.2778 3.52901C16.524 3.33961 16.8772 3.38569 17.0666 3.63194Z" fill="#BDC3F9"/>
</svg>
