<svg width="95" height="95" viewBox="0 0 95 95" fill="none" xmlns="http://www.w3.org/2000/svg">
<g filter="url(#filter0_d)">
<circle cx="47.5" cy="28.5" r="22.5" fill="white"/>
</g>
<path d="M57.9005 26.5439L48.7229 26.5435C48.3177 26.5435 47.9892 26.8719 47.9892 27.2772V30.209C47.9892 30.6142 48.3177 30.9427 48.7229 30.9427H53.8911C53.3252 32.4114 52.2689 33.6414 50.9213 34.4229L53.125 38.2377C56.6601 36.1933 58.75 32.6061 58.75 28.5904C58.75 28.0187 58.7079 27.6099 58.6236 27.1497C58.5595 26.8 58.2559 26.5439 57.9005 26.5439Z" fill="#167EE6"/>
<path d="M47.5 35.348C44.9708 35.348 42.7628 33.966 41.5769 31.9211L37.7622 34.1199C39.7035 37.4844 43.3402 39.7501 47.5 39.7501C49.5407 39.7501 51.4663 39.2007 53.125 38.2432V38.2379L50.9213 34.423C49.9133 35.0077 48.7468 35.348 47.5 35.348Z" fill="#12B347"/>
<path d="M53.125 38.243V38.2377L50.9213 34.4229C49.9133 35.0075 48.7469 35.3478 47.5 35.3478V39.7499C49.5407 39.7499 51.4663 39.2005 53.125 38.243Z" fill="#0F993E"/>
<path d="M40.6522 28.5001C40.6522 27.2535 40.9924 26.0871 41.5769 25.0791L37.7622 22.8804C36.7994 24.5339 36.25 26.4542 36.25 28.5001C36.25 30.5461 36.7994 32.4664 37.7622 34.1199L41.5769 31.9212C40.9924 30.9132 40.6522 29.7468 40.6522 28.5001Z" fill="#FFD500"/>
<path d="M47.5 21.6522C49.1493 21.6522 50.6643 22.2382 51.8476 23.2131C52.1395 23.4535 52.5638 23.4362 52.8312 23.1688L54.9085 21.0915C55.2119 20.7881 55.1903 20.2915 54.8662 20.0103C52.8836 18.2903 50.304 17.25 47.5 17.25C43.3402 17.25 39.7035 19.5157 37.7622 22.8802L41.5769 25.079C42.7628 23.0341 44.9708 21.6522 47.5 21.6522Z" fill="#FF4B26"/>
<path d="M51.8476 23.2131C52.1395 23.4535 52.5639 23.4362 52.8312 23.1688L54.9085 21.0915C55.2119 20.7881 55.1903 20.2915 54.8662 20.0103C52.8836 18.2903 50.304 17.25 47.5 17.25V21.6522C49.1493 21.6522 50.6643 22.2382 51.8476 23.2131Z" fill="#D93F21"/>
<defs>
<filter id="filter0_d" x="0" y="0" width="95" height="95" filterUnits="userSpaceOnUse" color-interpolation-filters="sRGB">
<feFlood flood-opacity="0" result="BackgroundImageFix"/>
<feColorMatrix in="SourceAlpha" type="matrix" values="0 0 0 0 0 0 0 0 0 0 0 0 0 0 0 0 0 0 127 0"/>
<feOffset dy="19"/>
<feGaussianBlur stdDeviation="12.5"/>
<feColorMatrix type="matrix" values="0 0 0 0 0 0 0 0 0 0 0 0 0 0 0 0 0 0 0.16 0"/>
<feBlend mode="normal" in2="BackgroundImageFix" result="effect1_dropShadow"/>
<feBlend mode="normal" in="SourceGraphic" in2="effect1_dropShadow" result="shape"/>
</filter>
</defs>
</svg>
