<svg width="23" height="23" viewBox="0 0 23 23" fill="none" xmlns="http://www.w3.org/2000/svg">
<path d="M21.9005 9.5439L12.7229 9.54346C12.3177 9.54346 11.9892 9.8719 11.9892 10.2772V13.209C11.9892 13.6142 12.3177 13.9427 12.7229 13.9427H17.8911C17.3252 15.4114 16.2689 16.6414 14.9213 17.4229L17.125 21.2377C20.6601 19.1933 22.75 15.6061 22.75 11.5904C22.75 11.0187 22.7079 10.6099 22.6236 10.1497C22.5595 9.80001 22.2559 9.5439 21.9005 9.5439Z" fill="#167EE6"/>
<path d="M11.5 18.348C8.97079 18.348 6.7628 16.966 5.57694 14.9211L1.76222 17.1199C3.70351 20.4844 7.34016 22.7501 11.5 22.7501C13.5407 22.7501 15.4663 22.2007 17.125 21.2432V21.2379L14.9213 17.423C13.9133 18.0077 12.7468 18.348 11.5 18.348Z" fill="#12B347"/>
<path d="M17.125 21.243V21.2377L14.9213 17.4229C13.9133 18.0075 12.7469 18.3478 11.5 18.3478V22.7499C13.5407 22.7499 15.4663 22.2005 17.125 21.243Z" fill="#0F993E"/>
<path d="M4.65218 11.5001C4.65218 10.2535 4.9924 9.0871 5.57692 8.07913L1.7622 5.88037C0.799404 7.5339 0.25 9.45422 0.25 11.5001C0.25 13.5461 0.799404 15.4664 1.7622 17.1199L5.57692 14.9212C4.9924 13.9132 4.65218 12.7468 4.65218 11.5001Z" fill="#FFD500"/>
<path d="M11.5 4.65218C13.1493 4.65218 14.6643 5.23823 15.8476 6.21307C16.1395 6.45354 16.5638 6.43618 16.8312 6.16877L18.9085 4.09148C19.2119 3.78808 19.1903 3.29146 18.8662 3.01029C16.8836 1.29032 14.304 0.25 11.5 0.25C7.34016 0.25 3.70351 2.51569 1.76222 5.88023L5.57694 8.07899C6.7628 6.03408 8.97079 4.65218 11.5 4.65218Z" fill="#FF4B26"/>
<path d="M15.8476 6.21307C16.1395 6.45354 16.5639 6.43618 16.8312 6.16877L18.9085 4.09148C19.2119 3.78808 19.1903 3.29146 18.8662 3.01029C16.8836 1.29027 14.304 0.25 11.5 0.25V4.65218C13.1493 4.65218 14.6643 5.23823 15.8476 6.21307Z" fill="#D93F21"/>
</svg>
