<svg width="18" height="18" viewBox="0 0 18 18" fill="none" xmlns="http://www.w3.org/2000/svg">
<path fill-rule="evenodd" clip-rule="evenodd" d="M4.6875 4.5C4.6875 2.12684 6.62684 0.1875 9 0.1875C11.3732 0.1875 13.3125 2.12684 13.3125 4.5V7.3125H4.6875V4.5ZM9 1.3125C7.24816 1.3125 5.8125 2.74816 5.8125 4.5V6.1875H12.1875V4.5C12.1875 2.74816 10.7518 1.3125 9 1.3125Z" fill="#BDC3F9"/>
<path fill-rule="evenodd" clip-rule="evenodd" d="M2.4375 6.1875H15.5625V17.8125H2.4375V6.1875ZM3.5625 7.3125V16.6875H14.4375V7.3125H3.5625Z" fill="#BDC3F9"/>
<path d="M9 12.75C9.82843 12.75 10.5 12.0784 10.5 11.25C10.5 10.4216 9.82843 9.75 9 9.75C8.17157 9.75 7.5 10.4216 7.5 11.25C7.5 12.0784 8.17157 12.75 9 12.75Z" stroke="#BDC3F9" stroke-width="1.5" stroke-miterlimit="10" stroke-linecap="square"/>
<path d="M9 12.75V14.25" stroke="#BDC3F9" stroke-width="1.5" stroke-miterlimit="10" stroke-linecap="square"/>
</svg>
