<svg width="18" height="18" viewBox="0 0 18 18" fill="none" xmlns="http://www.w3.org/2000/svg">
<path d="M9 0C6.56933 0 4.59183 1.9775 4.59183 4.40817C4.59183 6.83884 6.56933 8.81631 9 8.81631C11.4307 8.81631 13.4082 6.8388 13.4082 4.40814C13.4082 1.97747 11.4307 0 9 0ZM9 7.7143C7.17701 7.7143 5.69387 6.23116 5.69387 4.40817C5.69387 2.58518 7.17701 1.10204 9 1.10204C10.823 1.10204 12.3061 2.58518 12.3061 4.40817C12.3061 6.23116 10.823 7.7143 9 7.7143Z" fill="#BDC3F9"/>
<path d="M9 9.91846C4.84762 9.91846 1.46939 13.2967 1.46939 17.4491V18.0001H16.5306V17.4491C16.5306 13.2967 13.1524 9.91846 9 9.91846ZM2.59481 16.8981C2.87525 13.6104 5.64089 11.0205 9 11.0205C12.3591 11.0205 15.1247 13.6103 15.4052 16.8981H2.59481Z" fill="#BDC3F9"/>
</svg>
